<svg width="97" height="97" viewBox="0 0 97 97" fill="none" xmlns="http://www.w3.org/2000/svg">
<circle cx="48.5" cy="48.5" r="48" fill="#FFFEFE" stroke="#4F8FEE"/>
<rect width="26.2642" height="6.15078" rx="3.07539" transform="matrix(-0.602099 0.797636 -0.785043 -0.620463 47.5954 40.3328)" fill="#18A6F7"/>
<rect width="26.5909" height="5.65236" rx="2.82618" transform="matrix(0.805476 0.593678 -0.575182 0.817274 26.004 24.1419)" fill="#18A6F7"/>
<rect width="26.5746" height="5.65585" rx="2.82793" transform="matrix(0.822427 0.569943 -0.551576 0.833403 12.7931 41.0254)" fill="#18A6F7"/>
<rect width="26.7465" height="5.61985" rx="2.80992" transform="matrix(-0.614266 0.788297 -0.775357 -0.632533 30.4369 27.6892)" fill="#18A6F7"/>
<rect width="26.3995" height="5.86414" rx="2.93207" transform="matrix(-0.602098 0.797636 -0.785043 -0.620463 49.2318 54.5348)" fill="#18A6F7"/>
<rect width="26.5909" height="5.65236" rx="2.82618" transform="matrix(0.805476 0.593678 -0.575182 0.817274 27.8654 38.5218)" fill="#18A6F7"/>
<rect width="26.5746" height="5.76577" rx="2.88289" transform="matrix(0.822427 0.569943 -0.551576 0.833403 14.6548 55.4053)" fill="#18A6F7"/>
<rect width="26.7465" height="5.61985" rx="2.80992" transform="matrix(-0.614266 0.788297 -0.775357 -0.632533 32.2983 42.0691)" fill="#18A6F7"/>
<rect x="49.4616" y="25.9617" width="6.05491" height="49.2927" rx="3.02745" fill="#18A6F7"/>
<rect x="73.6813" y="25.9617" width="6.05491" height="49.2927" rx="3.02745" fill="#18A6F7"/>
<rect width="5.8589" height="33.2415" rx="2.92945" transform="matrix(0.832953 -0.553344 0.630318 0.776337 55.1671 50.9843)" fill="#18A6F7"/>
<rect width="5.85398" height="31.7746" rx="2.92699" transform="matrix(0.828081 -0.560608 0.637488 0.770461 48.1442 28.2106)" fill="#18A6F7"/>
<rect width="4.05426" height="5.81387" transform="matrix(0.692061 0.721839 -0.786799 0.61721 60.8696 46.3232)" fill="#18A6F7"/>
<rect width="4.05597" height="5.81387" transform="matrix(0.692061 0.721839 -0.786799 0.61721 68.5678 47.8696)" fill="#18A6F7"/>
<path fill-rule="evenodd" clip-rule="evenodd" d="M44.667 48.0397L37.3739 42.6651L35.9708 44.5094L43.2639 49.8839L44.667 48.0397ZM39.8382 54.3933L32.5451 49.0188L31.351 50.5883L38.6441 55.9628L39.8382 54.3933ZM17.0934 50.8571L22.9779 54.9105L21.7182 56.6886L15.8336 52.6352L17.0934 50.8571ZM27.5049 48.6509L22.417 45.1462L21.2151 46.8426L26.303 50.3472L27.5049 48.6509Z" fill="#FFFCFC"/>
</svg>
